<svg xmlns="http://www.w3.org/2000/svg" xmlns:xlink="http://www.w3.org/1999/xlink" version="1.1" width="256" height="256" viewBox="0 0 256 256" xml:space="preserve">

<defs>
</defs>
<g style="stroke: none; stroke-width: 0; stroke-dasharray: none; stroke-linecap: butt; stroke-linejoin: miter; stroke-miterlimit: 10; fill: none; fill-rule: nonzero; opacity: 1;" transform="translate(1.4065934065934016 1.4065934065934016) scale(2.81 2.81)" >
	<path d="M 26.87 81.227 c -1.628 0 -2.948 -1.32 -2.948 -2.948 V 21.93 C 23.922 10.389 33.311 1 44.851 1 h 1.3 c 11.54 0 20.93 9.389 20.93 20.93 c 0 1.628 -1.32 2.948 -2.948 2.948 s -2.948 -1.32 -2.948 -2.948 c 0 -8.289 -6.743 -15.033 -15.033 -15.033 h -1.3 c -8.289 0 -15.033 6.744 -15.033 15.033 v 56.349 C 29.818 79.907 28.499 81.227 26.87 81.227 z" style="stroke: none; stroke-width: 1; stroke-dasharray: none; stroke-linecap: butt; stroke-linejoin: miter; stroke-miterlimit: 10; fill: rgb(159,172,186); fill-rule: nonzero; opacity: 1;" transform=" matrix(1 0 0 1 0 0) " stroke-linecap="round" />
	<path d="M 26.87 82.227 c -2.177 0 -3.948 -1.771 -3.948 -3.948 V 21.93 C 22.922 9.838 32.759 0 44.851 0 h 1.299 c 12.092 0 21.93 9.838 21.93 21.93 c 0 2.177 -1.771 3.948 -3.948 3.948 s -3.948 -1.771 -3.948 -3.948 c 0 -7.738 -6.295 -14.033 -14.033 -14.033 h -1.299 c -7.738 0 -14.033 6.295 -14.033 14.033 v 56.348 C 30.818 80.455 29.047 82.227 26.87 82.227 z M 44.851 2 c -10.989 0 -19.929 8.94 -19.929 19.93 v 56.348 c 0 1.074 0.874 1.948 1.948 1.948 s 1.948 -0.874 1.948 -1.948 V 21.93 c 0 -8.841 7.192 -16.033 16.033 -16.033 h 1.299 c 8.841 0 16.033 7.192 16.033 16.033 c 0 1.074 0.874 1.948 1.948 1.948 s 1.948 -0.874 1.948 -1.948 C 66.08 10.94 57.14 2 46.15 2 H 44.851 z" style="stroke: none; stroke-width: 1; stroke-dasharray: none; stroke-linecap: butt; stroke-linejoin: miter; stroke-miterlimit: 10; fill: rgb(0,0,0); fill-rule: nonzero; opacity: 1;" transform=" matrix(1 0 0 1 0 0) " stroke-linecap="round" />
	<path d="M 40.161 89 H 13.579 v -3.065 c 0 -1.413 1.146 -2.559 2.559 -2.559 h 21.465 c 1.413 0 2.559 1.146 2.559 2.559 V 89 z" style="stroke: none; stroke-width: 1; stroke-dasharray: none; stroke-linecap: butt; stroke-linejoin: miter; stroke-miterlimit: 10; fill: rgb(159,172,186); fill-rule: nonzero; opacity: 1;" transform=" matrix(1 0 0 1 0 0) " stroke-linecap="round" />
	<path d="M 32.916 83.377 H 20.824 v -2.711 c 0 -1.318 1.069 -2.387 2.387 -2.387 h 7.318 c 1.318 0 2.387 1.069 2.387 2.387 V 83.377 z" style="stroke: none; stroke-width: 1; stroke-dasharray: none; stroke-linecap: butt; stroke-linejoin: miter; stroke-miterlimit: 10; fill: rgb(159,172,186); fill-rule: nonzero; opacity: 1;" transform=" matrix(1 0 0 1 0 0) " stroke-linecap="round" />
	<path d="M 32.916 84.377 H 20.824 c -0.552 0 -1 -0.447 -1 -1 v -2.712 c 0 -1.867 1.519 -3.387 3.387 -3.387 h 7.318 c 1.868 0 3.387 1.52 3.387 3.387 v 2.712 C 33.916 83.93 33.468 84.377 32.916 84.377 z M 21.824 82.377 h 10.092 v -1.712 c 0 -0.765 -0.622 -1.387 -1.387 -1.387 h -7.318 c -0.765 0 -1.387 0.622 -1.387 1.387 V 82.377 z" style="stroke: none; stroke-width: 1; stroke-dasharray: none; stroke-linecap: butt; stroke-linejoin: miter; stroke-miterlimit: 10; fill: rgb(0,0,0); fill-rule: nonzero; opacity: 1;" transform=" matrix(1 0 0 1 0 0) " stroke-linecap="round" />
	<path d="M 40.162 90 H 13.579 c -0.552 0 -1 -0.447 -1 -1 v -3.064 c 0 -1.962 1.596 -3.559 3.559 -3.559 h 21.465 c 1.962 0 3.559 1.597 3.559 3.559 V 89 C 41.162 89.553 40.714 90 40.162 90 z M 14.579 88 h 24.583 v -2.064 c 0 -0.859 -0.699 -1.559 -1.559 -1.559 H 16.137 c -0.859 0 -1.559 0.699 -1.559 1.559 V 88 z" style="stroke: none; stroke-width: 1; stroke-dasharray: none; stroke-linecap: butt; stroke-linejoin: miter; stroke-miterlimit: 10; fill: rgb(0,0,0); fill-rule: nonzero; opacity: 1;" transform=" matrix(1 0 0 1 0 0) " stroke-linecap="round" />
	<path d="M 76.421 27.114 H 46.716 v -3.919 c 0 -8.203 6.65 -14.853 14.853 -14.853 h 0 c 8.203 0 14.853 6.65 14.853 14.853 V 27.114 z" style="stroke: none; stroke-width: 1; stroke-dasharray: none; stroke-linecap: butt; stroke-linejoin: miter; stroke-miterlimit: 10; fill: rgb(159,172,186); fill-rule: nonzero; opacity: 1;" transform=" matrix(1 0 0 1 0 0) " stroke-linecap="round" />
	<path d="M 76.421 28.114 H 46.716 c -0.553 0 -1 -0.448 -1 -1 v -3.919 c 0 -8.741 7.111 -15.853 15.853 -15.853 s 15.853 7.111 15.853 15.853 v 3.919 C 77.421 27.666 76.974 28.114 76.421 28.114 z M 47.716 26.114 h 27.705 v -2.919 c 0 -7.638 -6.214 -13.853 -13.853 -13.853 s -13.853 6.214 -13.853 13.853 V 26.114 z" style="stroke: none; stroke-width: 1; stroke-dasharray: none; stroke-linecap: butt; stroke-linejoin: miter; stroke-miterlimit: 10; fill: rgb(0,0,0); fill-rule: nonzero; opacity: 1;" transform=" matrix(1 0 0 1 0 0) " stroke-linecap="round" />
	<path d="M 61.549 34.598 L 61.549 34.598 c -3.384 0 -6.127 -2.743 -6.127 -6.127 v -1.358 h 12.255 v 1.358 C 67.676 31.855 64.933 34.598 61.549 34.598 z" style="stroke: none; stroke-width: 1; stroke-dasharray: none; stroke-linecap: butt; stroke-linejoin: miter; stroke-miterlimit: 10; fill: rgb(255,202,87); fill-rule: nonzero; opacity: 1;" transform=" matrix(1 0 0 1 0 0) " stroke-linecap="round" />
	<path d="M 61.549 35.599 c -3.93 0 -7.127 -3.197 -7.127 -7.127 v -1.357 c 0 -0.552 0.447 -1 1 -1 h 12.254 c 0.553 0 1 0.448 1 1 v 1.357 C 68.676 32.401 65.479 35.599 61.549 35.599 z M 56.422 28.114 v 0.357 c 0 2.827 2.3 5.127 5.127 5.127 s 5.127 -2.3 5.127 -5.127 v -0.357 H 56.422 z" style="stroke: none; stroke-width: 1; stroke-dasharray: none; stroke-linecap: butt; stroke-linejoin: miter; stroke-miterlimit: 10; fill: rgb(0,0,0); fill-rule: nonzero; opacity: 1;" transform=" matrix(1 0 0 1 0 0) " stroke-linecap="round" />
	<path d="M 61.568 47.188 c -0.553 0 -1 -0.447 -1 -1 v -5.612 c 0 -0.552 0.447 -1 1 -1 s 1 0.448 1 1 v 5.612 C 62.568 46.741 62.121 47.188 61.568 47.188 z" style="stroke: none; stroke-width: 1; stroke-dasharray: none; stroke-linecap: butt; stroke-linejoin: miter; stroke-miterlimit: 10; fill: rgb(0,0,0); fill-rule: nonzero; opacity: 1;" transform=" matrix(1 0 0 1 0 0) " stroke-linecap="round" />
	<path d="M 72.885 42.662 c -0.303 0 -0.602 -0.137 -0.798 -0.396 l -3.395 -4.48 c -0.334 -0.44 -0.247 -1.067 0.193 -1.401 c 0.44 -0.335 1.068 -0.247 1.4 0.193 l 3.395 4.48 c 0.334 0.44 0.247 1.067 -0.193 1.401 C 73.307 42.596 73.095 42.662 72.885 42.662 z" style="stroke: none; stroke-width: 1; stroke-dasharray: none; stroke-linecap: butt; stroke-linejoin: miter; stroke-miterlimit: 10; fill: rgb(0,0,0); fill-rule: nonzero; opacity: 1;" transform=" matrix(1 0 0 1 0 0) " stroke-linecap="round" />
	<path d="M 50.252 42.662 c -0.21 0 -0.422 -0.066 -0.603 -0.203 c -0.44 -0.333 -0.527 -0.96 -0.193 -1.401 l 3.395 -4.48 c 0.332 -0.439 0.958 -0.528 1.4 -0.193 c 0.44 0.333 0.527 0.96 0.193 1.401 l -3.395 4.48 C 50.854 42.525 50.555 42.662 50.252 42.662 z" style="stroke: none; stroke-width: 1; stroke-dasharray: none; stroke-linecap: butt; stroke-linejoin: miter; stroke-miterlimit: 10; fill: rgb(0,0,0); fill-rule: nonzero; opacity: 1;" transform=" matrix(1 0 0 1 0 0) " stroke-linecap="round" />
</g>
</svg>